<svg width="208" height="50" viewBox="0 0 208 50" fill="none" xmlns="http://www.w3.org/2000/svg">
<path d="M20.7578 20.3281C20.7578 21.8776 20.3672 23.349 19.5859 24.7422C18.8047 26.1224 17.5872 27.2422 15.9336 28.1016C14.293 28.9609 12.1706 29.3906 9.56641 29.3906C8.26432 29.3906 7.11849 29.332 6.12891 29.2148C5.15234 29.0977 4.24089 28.9089 3.39453 28.6484C2.54818 28.375 1.66927 28.0234 0.757812 27.5938V20.7188C2.30729 21.5 3.86979 22.099 5.44531 22.5156C7.02083 22.9193 8.44661 23.1211 9.72266 23.1211C10.4909 23.1211 11.1159 23.0299 11.5977 22.8477C12.0924 22.6654 12.457 22.418 12.6914 22.1055C12.9258 21.7799 13.043 21.4089 13.043 20.9922C13.043 20.4974 12.8672 20.0807 12.5156 19.7422C12.1771 19.3906 11.6302 19.026 10.875 18.6484C10.1198 18.2708 9.1237 17.8021 7.88672 17.2422C6.83203 16.7474 5.875 16.2396 5.01562 15.7188C4.16927 15.1979 3.4401 14.6055 2.82812 13.9414C2.22917 13.2643 1.76693 12.4766 1.44141 11.5781C1.11589 10.6797 0.953125 9.61849 0.953125 8.39453C0.953125 6.55859 1.40234 5.02214 2.30078 3.78516C3.21224 2.53516 4.47526 1.59766 6.08984 0.972656C7.71745 0.347656 9.59245 0.0351562 11.7148 0.0351562C13.5768 0.0351562 15.25 0.24349 16.7344 0.660156C18.2318 1.07682 19.5729 1.55208 20.7578 2.08594L18.3945 8.04297C17.1706 7.48307 15.9661 7.04036 14.7812 6.71484C13.5964 6.3763 12.4961 6.20703 11.4805 6.20703C10.8164 6.20703 10.2695 6.29167 9.83984 6.46094C9.42318 6.61719 9.11068 6.83203 8.90234 7.10547C8.70703 7.37891 8.60938 7.69141 8.60938 8.04297C8.60938 8.48568 8.77865 8.88281 9.11719 9.23438C9.46875 9.58594 10.0482 9.97005 10.8555 10.3867C11.6758 10.7904 12.7891 11.3177 14.1953 11.9688C15.5885 12.5938 16.7734 13.2708 17.75 14C18.7266 14.7161 19.4688 15.582 19.9766 16.5977C20.4974 17.6003 20.7578 18.8438 20.7578 20.3281Z" fill="#1B1B70"/>
<path d="M51.8906 14.6836C51.8906 16.8841 51.6237 18.8893 51.0898 20.6992C50.569 22.4961 49.7487 24.0456 48.6289 25.3477C47.5091 26.6497 46.0703 27.6523 44.3125 28.3555C42.5547 29.0456 40.4518 29.3906 38.0039 29.3906C35.6081 29.3906 33.5312 29.0456 31.7734 28.3555C30.0286 27.6523 28.5898 26.6562 27.457 25.3672C26.3242 24.0651 25.4844 22.5091 24.9375 20.6992C24.3906 18.8893 24.1172 16.8711 24.1172 14.6445C24.1172 11.6758 24.6055 9.09766 25.582 6.91016C26.5716 4.70964 28.0951 3.01042 30.1523 1.8125C32.2096 0.601562 34.8398 -0.00390625 38.043 -0.00390625C41.2982 -0.00390625 43.9414 0.601562 45.9727 1.8125C48.0169 3.02344 49.5143 4.72917 50.4648 6.92969C51.4154 9.13021 51.8906 11.7148 51.8906 14.6836ZM32.2422 14.6836C32.2422 16.4023 32.4375 17.8802 32.8281 19.1172C33.2188 20.3542 33.8372 21.3047 34.6836 21.9688C35.5299 22.6328 36.6367 22.9648 38.0039 22.9648C39.4232 22.9648 40.5495 22.6328 41.3828 21.9688C42.2292 21.3047 42.8346 20.3542 43.1992 19.1172C43.5768 17.8802 43.7656 16.4023 43.7656 14.6836C43.7656 12.1055 43.3359 10.0677 42.4766 8.57031C41.6172 7.07292 40.1393 6.32422 38.043 6.32422C36.6497 6.32422 35.5234 6.66276 34.6641 7.33984C33.8177 8.01693 33.1992 8.98047 32.8086 10.2305C32.431 11.4805 32.2422 12.9648 32.2422 14.6836Z" fill="#1B1B70"/>
<path d="M57.0469 29V0.445312H64.7617V22.7695H75.7578V29H57.0469Z" fill="#1B1B70"/>
<path d="M104.605 0.445312V17.6328C104.605 20.0286 104.15 22.112 103.238 23.8828C102.327 25.6406 100.96 27.0013 99.1367 27.9648C97.3138 28.9154 95.0286 29.3906 92.2812 29.3906C88.349 29.3906 85.3477 28.3815 83.2773 26.3633C81.207 24.3451 80.1719 21.4935 80.1719 17.8086V0.445312H87.9258V17.2031C87.9258 19.2214 88.3034 20.6862 89.0586 21.5977C89.8138 22.5091 90.9271 22.9648 92.3984 22.9648C93.4531 22.9648 94.3125 22.7695 94.9766 22.3789C95.6406 21.9753 96.1224 21.3438 96.4219 20.4844C96.7344 19.625 96.8906 18.5182 96.8906 17.1641V0.445312H104.605Z" fill="#1B1B70"/>
<path d="M123.199 29H115.484V6.75391H108.512V0.445312H130.152V6.75391H123.199V29Z" fill="#1B1B70"/>
<path d="M134.234 29V0.445312H141.988V29H134.234Z" fill="#1B1B70"/>
<path d="M174.898 14.6836C174.898 16.8841 174.632 18.8893 174.098 20.6992C173.577 22.4961 172.757 24.0456 171.637 25.3477C170.517 26.6497 169.078 27.6523 167.32 28.3555C165.562 29.0456 163.46 29.3906 161.012 29.3906C158.616 29.3906 156.539 29.0456 154.781 28.3555C153.036 27.6523 151.598 26.6562 150.465 25.3672C149.332 24.0651 148.492 22.5091 147.945 20.6992C147.398 18.8893 147.125 16.8711 147.125 14.6445C147.125 11.6758 147.613 9.09766 148.59 6.91016C149.579 4.70964 151.103 3.01042 153.16 1.8125C155.217 0.601562 157.848 -0.00390625 161.051 -0.00390625C164.306 -0.00390625 166.949 0.601562 168.98 1.8125C171.025 3.02344 172.522 4.72917 173.473 6.92969C174.423 9.13021 174.898 11.7148 174.898 14.6836ZM155.25 14.6836C155.25 16.4023 155.445 17.8802 155.836 19.1172C156.227 20.3542 156.845 21.3047 157.691 21.9688C158.538 22.6328 159.645 22.9648 161.012 22.9648C162.431 22.9648 163.557 22.6328 164.391 21.9688C165.237 21.3047 165.842 20.3542 166.207 19.1172C166.585 17.8802 166.773 16.4023 166.773 14.6836C166.773 12.1055 166.344 10.0677 165.484 8.57031C164.625 7.07292 163.147 6.32422 161.051 6.32422C159.658 6.32422 158.531 6.66276 157.672 7.33984C156.826 8.01693 156.207 8.98047 155.816 10.2305C155.439 11.4805 155.25 12.9648 155.25 14.6836Z" fill="#1B1B70"/>
<path d="M207.242 29H197.125L186.695 8.88281H186.52C186.585 9.49479 186.643 10.2305 186.695 11.0898C186.747 11.9492 186.793 12.8281 186.832 13.7266C186.871 14.612 186.891 15.4128 186.891 16.1289V29H180.055V0.445312H190.133L200.523 20.2891H200.641C200.602 19.6641 200.562 18.9414 200.523 18.1211C200.484 17.2878 200.445 16.4479 200.406 15.6016C200.38 14.7552 200.367 14.0065 200.367 13.3555V0.445312H207.242V29Z" fill="#1B1B70"/>
<path d="M13 45C13 47.7614 10.7614 50 8 50C5.23858 50 3 47.7614 3 45C3 42.2386 5.23858 40 8 40C10.7614 40 13 42.2386 13 45Z" fill="#FF4729"/>
<path d="M45 45C45 47.7614 42.7614 50 40 50C37.2386 50 35 47.7614 35 45C35 42.2386 37.2386 40 40 40C42.7614 40 45 42.2386 45 45Z" fill="#FF4729"/>
<path d="M77 45C77 47.7614 74.7614 50 72 50C69.2386 50 67 47.7614 67 45C67 42.2386 69.2386 40 72 40C74.7614 40 77 42.2386 77 45Z" fill="#FF4729"/>
<path d="M109 45C109 47.7614 106.761 50 104 50C101.239 50 99 47.7614 99 45C99 42.2386 101.239 40 104 40C106.761 40 109 42.2386 109 45Z" fill="#FF4729"/>
<path d="M141 45C141 47.7614 138.761 50 136 50C133.239 50 131 47.7614 131 45C131 42.2386 133.239 40 136 40C138.761 40 141 42.2386 141 45Z" fill="#FF4729"/>
<path d="M173 45C173 47.7614 170.761 50 168 50C165.239 50 163 47.7614 163 45C163 42.2386 165.239 40 168 40C170.761 40 173 42.2386 173 45Z" fill="#FF4729"/>
<path d="M205 45C205 47.7614 202.761 50 200 50C197.239 50 195 47.7614 195 45C195 42.2386 197.239 40 200 40C202.761 40 205 42.2386 205 45Z" fill="#FF4729"/>
</svg>
